<?xml version="1.0" encoding="utf-8"?>
<!-- Generator: Adobe Illustrator 25.2.3, SVG Export Plug-In . SVG Version: 6.00 Build 0)  -->
<svg version="1.1" xmlns="http://www.w3.org/2000/svg" xmlns:xlink="http://www.w3.org/1999/xlink" x="0px" y="0px"
	 viewBox="0 0 255 210" style="enable-background:new 0 0 255 210;" xml:space="preserve">
<style type="text/css">
	.st0{fill:#4696D7;}
	.st1{fill:#04274B;}
	.st2{fill:#FFFFFF;}
	.st3{fill:#E6E6E6;}
	.st4{fill:#F2F2F2;}
	.st5{fill:#A0616A;}
	.st6{fill:#2F2E41;}
	.st7{fill:#FAFAFA;}
</style>
<g id="Calque_1">
	<path id="Tracé_766" class="st0" d="M45.4,150.2l-3.8-6.1c1.2-3.2,2.6-6.3,4.2-9.3l2.5,2.1l-1.9-3.1c2-3.7,3.5-6.1,3.5-6.1
		s7.6,12.5,10,25.7l-5.2,7.7l5.7-4.4c0.2,1.5,0.2,3.1,0.2,4.6c-0.3,15.5-5.6,28-11.9,27.9s-11.1-12.8-10.8-28.3
		c0.2-4.9,1.2-9.8,2.9-14.4L45.4,150.2z"/>
	<path id="Tracé_767" class="st0" d="M28.2,157l-6.4-3.3c-0.6-3.4-1-6.7-1.2-10.1l3.2,0.5l-3.3-1.7c-0.2-4.2-0.1-7-0.1-7
		s13,6.8,21.8,16.8l-0.5,9.2l2.6-6.7c0.9,1.2,1.8,2.5,2.6,3.8c7.8,13.4,9.6,26.9,4.2,30S35,183.4,27.3,170c-2.4-4.3-4-9-5-13.9
		L28.2,157z"/>
	<path id="Tracé_768" class="st1" d="M60.4,206.6c-7.4,0.5-15.5,0-24,0V187c8,1.1,16,1.1,24,0V206.6z"/>
	<path id="Tracé_769" class="st1" d="M234.6,116.9l-78.4,12.6l-0.3-76.2l78.4-50.2L234.6,116.9z"/>
	<path id="Tracé_770" class="st2" d="M227.3,105.6l-67.8,14.6V56.5l67.8-36.8V105.6z"/>
	<path id="Tracé_771" class="st0" d="M220.7,47.2l-57.2,25.6v-9l57.2-28.2V47.2z"/>
	<path id="Tracé_772" class="st0" d="M220.7,71.1l-57.2,20.2v-8.9l57.2-22.8V71.1z"/>
	<path id="Tracé_773" class="st3" d="M185.6,60c0-0.1,0.1-0.2,0.3-0.2c0.1,0,0.1,0.1,0.2,0.2l0.9,2.9l1.1,3.5c0,0.1,0,0.2-0.1,0.3
		l-2.1,0.9l-1.9,0.8c-0.1,0-0.2,0-0.3-0.1c0,0,0-0.1,0-0.1l1-4.2L185.6,60z"/>
	<path id="Tracé_774" class="st3" d="M182.1,81.7c0-0.2,0.2-0.3,0.4-0.3c0,0,0,0,0,0c0.1,0,0.2,0.1,0.3,0.2l0.8,2.4l1.1,3.4
		c0.1,0.2,0,0.4-0.2,0.4l-2,0.8l-1.6,0.7c-0.2,0.1-0.4,0-0.5-0.2c0,0,0,0,0,0c0-0.1,0-0.1,0-0.2l1-3.9L182.1,81.7z"/>
	<path id="Tracé_775" class="st4" d="M220.7,95l-57.2,14.7v-9.4l57.2-17.5V95z"/>
	<path id="Tracé_776" class="st0" d="M219.3,53.6c0,2-0.9,4-2,4.4s-2-0.8-2-2.8s0.9-4,2-4.4S219.3,51.6,219.3,53.6z"/>
	<path id="Tracé_777" class="st2" d="M218,54.2c0,0.6-0.2,1.1-0.7,1.5c-0.4,0.2-0.7-0.3-0.7-0.9c0-0.6,0.2-1.1,0.7-1.5
		C217.7,53.1,218,53.5,218,54.2z"/>
	<path id="Tracé_778" class="st0" d="M219.3,76.9c0,2-0.9,4-2,4.4s-2-0.8-2-2.8s0.9-4,2-4.4S219.3,74.9,219.3,76.9z"/>
	<path id="Tracé_779" class="st2" d="M218,77.4c0,0.6-0.2,1.1-0.7,1.5c-0.4,0.2-0.7-0.3-0.7-0.9c0-0.6,0.2-1.1,0.7-1.5
		C217.7,76.4,218,76.8,218,77.4z"/>
	<path id="Tracé_780" class="st4" d="M219.3,100.1c0,2-0.9,4-2,4.4s-2-0.8-2-2.8s0.9-3.9,2-4.4S219.3,98.1,219.3,100.1z"/>
	<path id="Tracé_781" class="st2" d="M218,100.7c0,0.6-0.2,1.1-0.7,1.5c-0.4,0.2-0.7-0.3-0.7-0.9c0-0.6,0.2-1.1,0.7-1.5
		C217.7,99.6,218,100,218,100.7z"/>
	<path id="Tracé_782" class="st3" d="M187.5,101c0-0.2,0.2-0.3,0.4-0.3c0.1,0,0.2,0.1,0.3,0.3l0.8,2.4l1.1,3.4
		c0.1,0.2,0,0.4-0.2,0.4l-2,0.8l-1.6,0.7c-0.2,0.1-0.4,0-0.5-0.2c0,0,0,0,0,0c0-0.1,0-0.1,0-0.2l1-3.9L187.5,101z"/>
	<path id="Tracé_785" class="st0" d="M124.6,144.2l-16.9,62.1l2.1,0.4l17.7-62.6H124.6z"/>
	<path id="Tracé_786" class="st0" d="M145.1,144.2l16.9,62.1l-2.1,0.4l-17.7-62.6H145.1z"/>
	<path id="Tracé_787" class="st0" d="M133.5,142.9l2.8,63.5l2.4,0.1l-3.2-64.5L133.5,142.9z"/>
	<path id="Tracé_788" class="st0" d="M141.4,141.9c0,1.6-4.4,3.3-10.2,3.9c-6.2,0.6-11.6-0.4-11.6-2.2s5.4-3.6,11.6-4
		C137,139.2,141.4,140.3,141.4,141.9z"/>
</g>
<g id="Calque_2">
	<g>
		<g>
			<path class="st5" d="M175,97.5l-0.8,1.3l-4.3-5.3c0.8-1.3,1.9-2.3,2.7-3.6c0.6-1.9,1.9-2.8,3.7-4.1c0.5-0.4,0.9-0.7,1.5-0.3"/>
		</g>
		<g>
			<path class="st5" d="M174.7,97.9c1.1-1.7,2.8-3,4.7-3.8c0.7-0.3,1.7-0.6,1.8-1.5c0-0.3,0-0.5,0-0.8c0.1-0.4,0.5-0.8,0.4-1.2
				c-0.1-0.3-0.4-0.6-0.4-1c-0.1-0.4,0.3-0.8,0.3-1.2c-0.1-0.5-0.8-0.9-0.9-1.4c-0.1-0.4,0.2-0.7,0.5-1c1.2-1.2,2.7-2.1,3.6-3.5
				c0.1-0.2,0-0.4-0.2-0.5c-0.7-0.1-1.3,0.2-1.9,0.5c-2.3,1.3-4.4,3-6.9,3.9"/>
		</g>
		<g>
			<path class="st5" d="M174.8,97.9c-0.2,0.4-0.5,0.7-0.7,1.1"/>
		</g>
	</g>
	<path id="Tracé_784" class="st6" d="M133.1,98.2l-1.8,2.5c0,0-2.5,9.7,10.2,10.2c0,0,16.3,7.9,20.3,3S176.9,97,176.9,97l-6.5-6.6
		l-13.3,13.9l-12.9-6.5C144.2,97.8,137.5,94.2,133.1,98.2z"/>
	<path id="Tracé_789" class="st6" d="M147.6,131l4.2,3c0,0,18.3,13.2,16.6,18.3s-11,25.5-11,25.5l-11.9-3.8l13.5-21.7l-7.2-6.8
		l-3.8-9.3L147.6,131z"/>
	<path id="Tracé_790" class="st6" d="M131,123.3c0,0-8.5,13.2-3.4,17s19.5,18.7,19.5,18.7l3,6.8l10.6,34.4l13.2-6.8L162,166.7
		c0,0-1.3-9.8-5.5-15.3s-5.9-13.6-5.9-13.6l1.3-3.8l-7.6-12.2L131,123.3z"/>
	<path id="Tracé_791" class="st6" d="M154.1,175.3l-7.6-2.3c0,0-8.2-0.3-7.8,2.6s7.2,22.5,9.4,21.2s0.4-7.2,0.4-7.2L154.1,175.3z"
		/>
	<path id="Tracé_792" class="st5" d="M137.1,81.9l-4.2,4.7l6.8,11l3-8.5L137.1,81.9z"/>
	<path id="Tracé_793" class="st7" d="M141.2,98.3l-7.5-12.5l-2.6,0.6v4.2l-0.9,35.7l14-2.1C144.1,124.2,145,101.3,141.2,98.3z"/>
	<path id="Tracé_794" class="st6" d="M137.4,97.9L131,86.4l-5.5,2.6l-9.8,40l-6,11.5c0,0,19.6,9.8,24.2,0s5.1-31.4,5.1-31.4
		L137.4,97.9z"/>
	<g>
		<path id="ac9b6f70-0563-41e5-b87b-91f360a30f5e_1_" class="st5" d="M132,122.6l8.9,11c0.2-0.1,0.3-0.1,0.5-0.1l0,0
			c0.1,0,0.3,0,0.4,0c1.7-0.1,2.7,1.6,2.3,3.6s-1.1,3.6-2.8,3.7c-1.5,0.1-2.8-1.2-3.1-3c-0.1-0.3-0.2-0.6-0.4-0.8l-11.5-9.8
			L132,122.6z"/>
		<path class="st5" d="M139.6,140.2c-0.1-0.2-0.3-0.3-0.4-0.4c0,0,0,0,0,0l0.7-7.3c0,0,5,1,5.6,1.4c0.6,0.4,1.4,1.6,1.5,1.9
			c0.1,1.8-0.8,0.6-1.2,0.1l-0.6-0.2c0,0,1,0.8,1.1,1.2c0.1,0.8,0,2.4-0.6,2.8l-0.2,0.1c0,0.3-0.8,1.5-1,1.7
			c-0.1,0.9-0.8,0.9-1.2,0.5c-0.6-0.4-2.4-1.1-3.4-1.6C139.7,140.3,139.6,140.2,139.6,140.2z"/>
	</g>
	<path id="Tracé_795" class="st6" d="M128,90.6l-2.6-1.7c0,0-9.8-2.1-9.8,10.6c0,0-7.2,16.6-2.1,20.4s17.5,14.4,17.5,14.4l6.4-6.8
		l-14.4-12.8l6-13.2C128.9,101.7,132.3,94.9,128,90.6z"/>
	<path id="Tracé_797" class="st6" d="M140.7,94.4l7.3,17.9c0,0,3,8.9,3,12.3v9.4l-8.1-10.6C142.9,123.4,138.5,95.7,140.7,94.4z"/>
	<path id="Tracé_798" class="st6" d="M163.9,196.9c0,0-2.1,8.3,0.6,9s25.9,1.3,26-2.6s-15-7.1-15-7.1l-5.6-3.6L163.9,196.9z"/>
	<g id="Calque_3">
		<path class="st5" d="M148.9,81.2c-0.2,0.6,0.1,1.4-0.5,2.2c-0.2,0.3-0.2,0.7-0.3,1c-0.2,0.7-0.7,2-1.6,2.9
			c-0.8,0.7-1.4,1.5-1.7,2.1c-0.4,0.8-1.2,1.3-2.1,1.2c-0.6,0-1.2-0.2-1.9-0.7c-1.6-1.4-5.3-4.6-5-6.5c0.2-1.2,0.4-2.4,0.5-3.1
			c0.1-0.5,0.2-0.9,0.5-1.3l1.2-1.6c0.4-0.5,0.9-0.8,1.6-1c1.9-0.4,6.1-1,7.2,0.1c0.7,0.7,1.4,1.6,1.9,2.4
			C149,79.6,149.1,80.5,148.9,81.2z"/>
		<path class="st5" d="M147.3,81.2c0,0-0.4-4.7-3.1-5.1c-2.7-0.4-5.2-0.4-5.2-0.4l-2.9,2.2l-0.7,4.6l1.1,3.7l2.7,1.8l5.7-0.1
			L147.3,81.2z"/>
	</g>
	<g id="Calque_4">
		<path class="st5" d="M147.3,83.3c0,0,3.3-1.5,0.4-4.3c-2.8-2.7-7.5-4.1-7.5-4.1l-4.1,1.7l-1.1,5.4l2.6,3.8l4.3,2.4L147.3,83.3z"/>
	</g>
	<path class="st6" d="M151.1,75.3c-0.4-0.5-1.2-0.7-1.7-1c-0.5-0.4-0.8-0.8-1.1-1.3c-0.3-0.5-0.6-1-1.1-1.4
		c-0.5-0.4-1.1-0.5-1.6-0.3c-0.2,0.1-0.4,0.1-0.5,0.1c-0.2,0-0.5-0.3-0.7-0.4c-1.9-0.9-4.1-0.3-6.2-0.1c-0.8,0.1-1.7,0.3-2.4,0.6
		c-0.8,0.4-1.4,1-1.7,1.9c-0.2,0.7,0,1.4-0.2,2c-0.1,0.4-0.4,0.8-0.6,1.3c-0.4,1.2,0.1,2.5,0.3,3.8c0.2,1.4,0.1,2.9,0.7,4.2
		c0.1,0.3,0.7,1.3,1,1.1c0.2-0.1,0.2-1.3,0.3-1.6c0.3-0.8,0.3-0.7,0.7-1.3c0.1-0.1,0.1-0.3,0-0.4c-0.7-0.8-0.5-2.5,0.9-2.5
		c0.5,0,0.9,0.2,1.1,0.5c0.6,0.3,0.7-0.9,0.9-1.2c1.6-2.1,4.9,3,7.1,2.9c0.3,0,2.1,0.6,2.1,0.6c0.2,0,0.8-0.4,1.1-1
		c0.2-0.4,0.2-2,0.9-2.6c0.2-0.2,0.4-0.6,0.5-0.9c0.2-0.4,0.3-1,0.4-1.4C151.5,76.2,151.4,75.7,151.1,75.3z"/>
</g>
</svg>
